<?xml version="1.0" encoding="UTF-8" standalone="no"?>
<svg
   xmlns:svg="http://www.w3.org/2000/svg"
   xmlns="http://www.w3.org/2000/svg"
   width="800.0"
   height="240.0"

>
    <g transform="scale(186.9672361801508, -186.9672361801508)   translate(2.6742653430370495,-0.5579300358083609)" stroke-width="0.005348530686074099"  fill="none">
       <!-- hidden lines -->
       <g  stroke="rgb(160,160,160)" fill="none" stroke-dasharray="0.005348530686074099,0.005348530686074099" >

       </g>

       <!-- solid lines -->
       <g  stroke="rgb(0,0,0)" fill="none">
			<path d="M0.1887716712732036,-0.417377337463388 L-1.132630027639221,0.35021316821640586 " />
			<path d="M-1.6045592058222298,0.3166310835929149 L-1.132630027639221,0.3502131682164059 " />
			<path d="M-0.28315750690980507,-0.45095942208687895 L-1.6045592058222298,0.316631083592915 " />
			<path d="M-0.2831575069098051,-0.4509594220868789 L0.1887716712732036,-0.4173773374633879 " />
			<path d="M1.1326300276392212,-0.3502131682164059 L1.6045592058222298,-0.316631083592915 " />
			<path d="M1.6045592058222298,-0.316631083592915 L0.2831575069098051,0.4509594220868789 " />
			<path d="M-0.18877167127320346,0.4173773374633879 L0.2831575069098052,0.45095942208687884 " />
			<path d="M1.132630027639221,-0.3502131682164059 L-0.1887716712732037,0.41737733746338795 " />

       </g>
    </g>
    <g transform="translate(20,210.0)" stroke="rgb(0,0,255)">
        <line x1="30" y1="-30" x2="75" y2="-33" stroke-width="3" stroke="#000000" />
         <text x="80" y="-30" style="stroke:#000000">X </text>

        <line x1="30" y1="-30" x2="30" y2="-75" stroke-width="3" stroke="#000000" />
         <text x="25" y="-85" style="stroke:#000000">Y </text>

        <line x1="30" y1="-30" x2="58" y2="-15" stroke-width="3" stroke="#000000" />
         <text x="65" y="-5" style="stroke:#000000">Z </text>
        <!--
            <line x1="0" y1="0" x2="186.9672361801508" y2="0" stroke-width="3" />
            <text x="0" y="20" style="stroke:#000000">1  in </text>
        -->
    </g>
</svg>
