<?xml version="1.0" encoding="UTF-8" standalone="no"?>
<svg
   xmlns:svg="http://www.w3.org/2000/svg"
   xmlns="http://www.w3.org/2000/svg"
   width="800.0"
   height="240.0"

>
    <g transform="scale(66.03520969180002, -66.03520969180002)   translate(3.6893881351245907,-1.6657780071176083)" stroke-width="0.015143436428341893"  fill="none">
       <!-- hidden lines -->
       <g  stroke="rgb(160,160,160)" fill="none" stroke-dasharray="0.015143436428341893,0.015143436428341893" >

       </g>

       <!-- solid lines -->
       <g  stroke="rgb(0,0,0)" fill="none">
			<path d="M0.6607008494562123,-1.3629092785507704 L0.6607008494562123,-0.8733522656953336 " />
			<path d="M0.6607008494562123,-0.8733522656953336 L-0.6607008494562123,-0.10576176001553976 " />
			<path d="M-0.6607008494562123,-0.5953187728709765 L-0.6607008494562123,-0.10576176001553977 " />
			<path d="M0.6607008494562123,-1.3629092785507704 L-0.6607008494562123,-0.5953187728709765 " />
			<path d="M0.6607008494562123,0.10576176001553972 L0.6607008494562123,0.5953187728709763 " />
			<path d="M0.6607008494562123,0.5953187728709763 L-0.6607008494562123,1.3629092785507704 " />
			<path d="M-0.6607008494562123,0.8733522656953336 L-0.6607008494562123,1.3629092785507702 " />
			<path d="M0.6607008494562123,0.10576176001553977 L-0.6607008494562123,0.8733522656953336 " />

       </g>
    </g>
    <g transform="translate(20,210.0)" stroke="rgb(0,0,255)">
        <line x1="30" y1="-30" x2="75" y2="-33" stroke-width="3" stroke="#000000" />
         <text x="80" y="-30" style="stroke:#000000">X </text>

        <line x1="30" y1="-30" x2="30" y2="-75" stroke-width="3" stroke="#000000" />
         <text x="25" y="-85" style="stroke:#000000">Y </text>

        <line x1="30" y1="-30" x2="58" y2="-15" stroke-width="3" stroke="#000000" />
         <text x="65" y="-5" style="stroke:#000000">Z </text>
        <!--
            <line x1="0" y1="0" x2="66.03520969180002" y2="0" stroke-width="3" />
            <text x="0" y="20" style="stroke:#000000">1  in </text>
        -->
    </g>
</svg>
