<?xml version="1.0" encoding="UTF-8" standalone="no"?>
<svg
   xmlns:svg="http://www.w3.org/2000/svg"
   xmlns="http://www.w3.org/2000/svg"
   width="800.0"
   height="240.0"

>
    <g transform="scale(86.01918728089832, -86.01918728089832)   translate(3.268921011827918,-1.2787844605040453)" stroke-width="0.011625313277309503"  fill="none">
       <!-- hidden lines -->
       <g  stroke="rgb(160,160,160)" fill="none" stroke-dasharray="0.011625313277309503,0.011625313277309503" >

       </g>

       <!-- solid lines -->
       <g  stroke="rgb(0,0,0)" fill="none">
			<path d="M-0.9438583563660174,0.9119498564638914 L0.9438583563660174,1.0462781949578552 " />
			<path d="M0.9438583563660174,1.0462781949578552 L0.9438583563660174,-0.9119498564638914 " />
			<path d="M-0.9438583563660174,-1.0462781949578552 L0.9438583563660174,-0.9119498564638914 " />
			<path d="M-0.9438583563660174,0.9119498564638914 L-0.9438583563660174,-1.0462781949578552 " />
			<path d="M-0.4719291781830087,-0.03358208462349118 L-0.469656710198692,0.014564600721260432 L-0.46286119135468834,0.06257102099924527 L-0.4516080662122739,0.10997484814020793 L-0.436005708518154,0.15631955737521314 L-0.4162043775060394,0.20115882381973266 L-0.39239477081808527,0.2440608208262698 L-0.36480618798235154,0.2846123787110339 L-0.33370432213300016,0.32242296380385793 L-0.2993887012401695,0.35712843950093015 L-0.262189803491884,0.38839457309934483 L-0.2224658746084457,0.41592025464074206 L-0.18059947774031024,0.43944039676481017 L-0.1369938091758185,0.45872848764547663 L-0.09206881534053024,0.47359877242361753 L-0.04625714848357869,0.48390804212789496 L-6.657672706590838e-16,0.4895570128554367 L0.046257148483577364,0.4904912819300949 L0.09206881534052942,0.4867018518299572 L0.13699380917581808,0.4782252168384011 L0.1805994777403094,0.4651430115841954 L0.22246587460844458,0.44758122485539903 L0.26218980349188287,0.4257089862584594 L0.2993887012401684,0.3997369374076468 L0.3337043221329995,0.36991520333116057 L0.3648061879823512,0.33653098363037537 L0.39239477081808477,0.2999057865906812 L0.41620437750603884,0.2603923328809391 L0.43600570851815346,0.2183711586606251 L0.45160806621227345,0.1742469508085911 L0.4628611913546882,0.12844464956719742 L0.46965671019869204,0.08140535613548386 L0.4719291781830088,0.03358208462349172 L0.4696567101986921,-0.014564600721259448 L0.46286119135468845,-0.06257102099924473 L0.4516080662122739,-0.10997484814020782 L0.43600570851815407,-0.15631955737521303 L0.41620437750603945,-0.20115882381973255 L0.3923947708180853,-0.24406082082626968 L0.36480618798235154,-0.28461237871103384 L0.3337043221330002,-0.32242296380385793 L0.2993887012401695,-0.3571284395009301 L0.2621898034918841,-0.38839457309934483 L0.22246587460844577,-0.415920254640742 L0.1805994777403107,-0.43944039676481 L0.13699380917581946,-0.45872848764547636 L0.09206881534053124,-0.4735987724236173 L0.046257148483579646,-0.48390804212789484 L7.672511265220784e-16,-0.4895570128554366 L-0.0462571484835781,-0.49049128193009484 L-0.09206881534052973,-0.4867018518299571 L-0.136993809175818,-0.4782252168384011 L-0.1805994777403093,-0.46514301158419546 L-0.22246587460844447,-0.4475812248553991 L-0.26218980349188287,-0.42570898625845943 L-0.29938870124016836,-0.3997369374076468 L-0.3337043221329991,-0.3699152033311609 L-0.36480618798235065,-0.3365309836303761 L-0.3923947708180842,-0.29990578659068184 L-0.4162043775060384,-0.26039233288093994 L-0.43600570851815346,-0.2183711586606251 L-0.45160806621227373,-0.17424695080859032 L-0.46286119135468823,-0.12844464956719698 L-0.469656710198692,-0.08140535613548387 L-0.4719291781830087,-0.03358208462350042 " />

       </g>
    </g>
    <g transform="translate(20,210.0)" stroke="rgb(0,0,255)">
        <line x1="30" y1="-30" x2="75" y2="-33" stroke-width="3" stroke="#000000" />
         <text x="80" y="-30" style="stroke:#000000">X </text>

        <line x1="30" y1="-30" x2="30" y2="-75" stroke-width="3" stroke="#000000" />
         <text x="25" y="-85" style="stroke:#000000">Y </text>

        <line x1="30" y1="-30" x2="58" y2="-15" stroke-width="3" stroke="#000000" />
         <text x="65" y="-5" style="stroke:#000000">Z </text>
        <!--
            <line x1="0" y1="0" x2="86.01918728089832" y2="0" stroke-width="3" />
            <text x="0" y="20" style="stroke:#000000">1  in </text>
        -->
    </g>
</svg>
